<?xml version="1.0" encoding="UTF-8" standalone="no"?>
<svg
   xmlns:dc="http://purl.org/dc/elements/1.1/"
   xmlns:cc="http://creativecommons.org/ns#"
   xmlns:rdf="http://www.w3.org/1999/02/22-rdf-syntax-ns#"
   xmlns:svg="http://www.w3.org/2000/svg"
   xmlns="http://www.w3.org/2000/svg"
   xmlns:sodipodi="http://sodipodi.sourceforge.net/DTD/sodipodi-0.dtd"
   xmlns:inkscape="http://www.inkscape.org/namespaces/inkscape"
   width="210mm"
   height="297mm"
   viewBox="0 0 210 297"
   version="1.1"
   id="svg8"
   inkscape:version="1.0.2-2 (e86c870879, 2021-01-15)"
   sodipodi:docname="fatima.svg">
  <defs
     id="defs2" />
  <sodipodi:namedview
     id="base"
     pagecolor="#ffffff"
     bordercolor="#666666"
     borderopacity="1.0"
     inkscape:pageopacity="0.0"
     inkscape:pageshadow="2"
     inkscape:zoom="0.7"
     inkscape:cx="354.49897"
     inkscape:cy="404.067"
     inkscape:document-units="mm"
     inkscape:current-layer="layer1"
     inkscape:document-rotation="0"
     showgrid="false"
     inkscape:window-width="3440"
     inkscape:window-height="1377"
     inkscape:window-x="1912"
     inkscape:window-y="-8"
     inkscape:window-maximized="1" />
  <metadata
     id="metadata5">
    <rdf:RDF>
      <cc:Work
         rdf:about="">
        <dc:format>image/svg+xml</dc:format>
        <dc:type
           rdf:resource="http://purl.org/dc/dcmitype/StillImage" />
        <dc:title></dc:title>
      </cc:Work>
    </rdf:RDF>
  </metadata>
  <g
     inkscape:label="Layer 1"
     inkscape:groupmode="layer"
     id="layer1">
    <path
       style="fill:#000000;stroke-width:0.264583"
       d="m 101.14522,207.48371 c -7.540819,-1.18253 -15.930489,-5.80294 -20.029599,-11.03081 -0.71679,-0.91418 -1.57642,-2.1373 -1.91029,-2.71805 -1.25857,-2.18922 -2.61678,-6.87965 -3.71656,-12.83471 -2.14863,-11.63435 -2.79668,-14.11493 -4.59608,-17.5929 -0.79205,-1.53092 -1.65802,-2.67339 -3.1366,-4.13812 -2.25038,-2.22931 -3.8077,-3.13771 -5.38971,-3.14386 -1.92171,-0.007 -1.90296,-0.21788 0.28091,-3.15231 3.71985,-4.99827 8.0242,-8.99055 10.71811,-9.94102 0.70368,-0.24827 2.08808,-0.39637 3.70517,-0.39637 h 2.58172 l -0.11743,-17.66094 c -0.11336,-17.04953 -0.099,-17.73168 0.4151,-19.70444 0.29555,-1.13411 0.9448,-2.68799 1.45895,-3.49173 3.23215,-5.05267 7.4517,-5.68292 13.3362,-1.99198 0.57133,0.35835 0.64854,0.33149 1.17919,-0.41029 0.91952,-1.28538 2.19612,-2.40859 4.984479,-4.38558 2.864,-2.03062 3.35119,-2.59556 3.81557,-4.42448 0.16999,-0.66949 0.43092,-1.25787 0.57984,-1.30751 0.14891,-0.0496 0.40586,0.44631 0.57099,1.10211 0.3727,1.4801 1.86934,3.05441 5.29185,5.56647 2.34225,1.71915 4.00111,3.49466 4.00111,4.28244 0,0.51596 0.61845,0.43893 1.39778,-0.17409 0.37146,-0.29219 1.31026,-0.82681 2.0862,-1.18804 1.69893,-0.7909 4.46832,-0.89524 6.38923,-0.24072 1.3887,0.47318 3.40247,2.16115 4.54478,3.80951 1.36309,1.96694 1.44538,3.03882 1.45257,18.92031 0.004,8.00364 0.0825,16.04036 0.17518,17.85937 l 0.1686,3.3073 2.17385,-0.0917 c 1.90509,-0.0804 2.35401,-0.007 3.63103,0.59761 1.9678,0.93092 4.57001,3.37442 6.72996,6.31951 0.98224,1.33927 2.53549,3.234 3.45169,4.21051 0.91619,0.9765 1.6658,1.88012 1.6658,2.00805 0,0.28763 -0.73723,0.62373 -2.72993,1.24458 -2.68863,0.83768 -4.69787,3.10978 -7.26492,8.21537 -1.51658,3.01634 -2.79917,7.41578 -3.89114,13.34716 -1.65124,8.96915 -2.64743,11.97824 -5.32588,16.08735 -1.74204,2.67251 -5.28848,6.27709 -7.91227,8.04197 -3.99842,2.68951 -9.17072,4.64904 -13.75399,5.2107 -2.93152,0.35925 -4.13637,0.34024 -7.01146,-0.11062 z m 5.32282,-4.20932 c 1.62027,-2.14163 1.73992,-2.2391 2.95495,-2.40739 1.00506,-0.13921 1.24132,-0.26552 1.14521,-0.61227 -0.41849,-1.50986 -1.23314,-5.40763 -1.148,-5.49276 0.0563,-0.0563 1.31996,0.80333 2.80813,1.91027 1.48817,1.10695 2.76237,1.95603 2.83156,1.88685 0.0692,-0.0692 0.31578,-0.88583 0.548,-1.81477 0.23221,-0.92893 0.45704,-1.72922 0.4996,-1.77842 0.0941,-0.1087 1.56969,0.92514 2.48796,1.74309 0.36758,0.32742 0.77092,0.59532 0.89632,0.59532 0.1254,0 0.1443,-0.83344 0.042,-1.85209 -0.2153,-2.14382 -0.31023,-2.08802 2.31412,-1.3603 0.97543,0.27048 1.8232,0.44208 1.88393,0.38135 0.092,-0.092 -1.43638,-3.71898 -2.87419,-6.82047 -0.20091,-0.43338 -0.32222,-0.83104 -0.26958,-0.88368 0.0526,-0.0526 1.31327,0.69946 2.8014,1.67133 3.54097,2.31257 3.50243,2.30046 3.26968,1.02796 -0.10338,-0.5652 -0.29037,-1.30329 -0.41552,-1.64018 -0.37384,-1.00632 -0.30759,-1.0593 1.75919,-1.40658 1.0927,-0.1836 2.1345,-0.42865 2.3151,-0.54453 0.22952,-0.14728 -0.1097,-0.60133 -1.12684,-1.5083 -0.80037,-0.71366 -1.39568,-1.35602 -1.32292,-1.42745 0.26951,-0.2646 4.57065,-2.5704 4.7947,-2.5704 0.12781,0 0.23239,-0.10649 0.23239,-0.23665 0,-0.13016 -1.48561,-0.81476 -3.30135,-1.52135 -1.81574,-0.70659 -3.30402,-1.34568 -3.30729,-1.42021 -0.003,-0.0745 1.66744,-0.66198 3.71269,-1.30546 2.04526,-0.64347 3.76532,-1.24548 3.82237,-1.33778 0.0571,-0.0923 -0.7206,-0.61307 -1.72811,-1.15725 -1.00751,-0.54418 -1.88776,-1.0799 -1.95611,-1.19049 -0.11737,-0.1899 3.04155,-2.18415 3.74998,-2.36739 0.61998,-0.16037 0.33184,-0.46901 -1.19062,-1.27534 -1.64805,-0.87284 -1.60804,-0.76814 -1.26826,-3.31811 0.18418,-1.3822 0.16063,-1.49493 -0.29093,-1.39211 -0.27023,0.0615 -1.97227,0.46786 -3.78231,0.90294 -1.81004,0.43509 -3.33956,0.74248 -3.39894,0.6831 -0.18502,-0.18502 1.49089,-2.4568 2.25705,-3.05954 1.37644,-1.08284 2.48053,-1.37165 5.75578,-1.50562 1.74625,-0.0714 3.7832,-0.30031 4.52655,-0.50863 1.76023,-0.49329 4.10477,-1.91872 5.81263,-3.53394 0.75052,-0.70981 1.7971,-1.47128 2.32572,-1.69216 0.52863,-0.22087 0.96115,-0.50296 0.96115,-0.62686 0,-0.12389 -0.57246,-0.87411 -1.27212,-1.66714 -0.69967,-0.79304 -1.99647,-2.40018 -2.88177,-3.57144 -2.6462,-3.50091 -4.66134,-4.73392 -7.75236,-4.74348 -1.6238,-0.005 -2.18817,0.1106 -3.1059,0.63624 -0.61683,0.3533 -1.20936,0.55453 -1.31673,0.44716 -0.10736,-0.10736 -0.16297,-4.54625 -0.12356,-9.8642 0.0818,-11.0353 -0.37553,-29.09266 -0.77509,-30.60608 -0.34586,-1.31 -1.97092,-3.06475 -3.59075,-3.87732 -2.4729,-1.2405 -5.5462,-0.4939 -8.22862,1.999 -0.68634,0.63784 -1.30743,1.16126 -1.38019,1.16315 -0.38172,0.01 -0.77898,-0.56131 -1.55597,-2.23741 -1.06338,-2.2939 -1.4605,-2.72223 -4.24321,-4.57676 -1.6005,-1.06663 -2.44931,-1.84147 -3.01612,-2.75329 -0.86222,-1.38703 -1.12004,-1.53095 -1.36423,-0.76156 -0.30021,0.94588 -1.2464,1.89074 -3.24177,3.23719 -2.794319,1.88559 -3.161639,2.24449 -4.363949,4.26388 -0.58638,0.98489 -1.17831,1.86003 -1.3154,1.94476 -0.13709,0.0847 -0.85083,-0.35321 -1.58608,-0.97318 -4.47819,-3.77607 -9.9094,-2.98719 -12.04727,1.74987 -0.43624,0.96661 -0.47704,2.53618 -0.54983,21.15167 -0.0432,11.05917 -0.16569,20.19465 -0.2721,20.30106 -0.10642,0.10642 -0.90447,-0.0988 -1.77346,-0.45599 -1.86532,-0.76676 -3.88661,-0.8521 -5.91502,-0.24972 -1.09337,0.32469 -1.76514,0.78851 -3.16148,2.18281 -1.69167,1.6892 -5.32192,6.50443 -5.32424,7.06217 -0.001,0.28022 1.44383,1.18883 5.54468,3.4865 l 2.51351,1.4083 h 4.17011 c 5.02745,0 5.97018,0.30865 7.59394,2.48631 1.12027,1.50243 1.96793,3.05226 1.77493,3.24526 -0.0694,0.0694 -1.62351,-0.38071 -3.45362,-1.0002 -1.8301,-0.61949 -3.39316,-1.06065 -3.47346,-0.98035 -0.0803,0.0803 0.26537,1.28243 0.76816,2.67141 0.50279,1.38898 0.84384,2.59575 0.75789,2.6817 -0.0859,0.086 -0.94011,0.16815 -1.89813,0.18266 -3.32472,0.0503 -3.34985,0.12725 -0.74347,2.27529 l 2.29097,1.88809 -1.9754,1.23121 c -1.08646,0.67716 -1.97229,1.31205 -1.9685,1.41085 0.004,0.0988 1.37301,0.71016 3.04271,1.35857 1.6697,0.64842 3.03581,1.25222 3.03581,1.3418 0,0.0896 -1.12887,0.63061 -2.5086,1.20232 -1.37973,0.5717 -2.51083,1.10797 -2.51354,1.19171 -0.003,0.0837 0.88803,0.71793 1.97943,1.40931 1.09141,0.69138 1.98438,1.33273 1.98438,1.42523 0,0.0925 -0.48316,0.66047 -1.07368,1.26218 l -1.07369,1.094 0.67844,0.44454 c 0.37315,0.24449 0.97537,0.55742 1.33827,0.69539 0.60261,0.22911 0.65983,0.3891 0.65983,1.84492 0,1.03499 0.10788,1.59405 0.30762,1.59405 0.16919,0 1.77654,-0.77715 3.57187,-1.72701 3.14,-1.66126 3.69524,-1.84164 2.89249,-0.93966 -0.20446,0.22974 -1.34476,1.77345 -2.534,3.43048 l -2.16226,3.01276 1.9387,-0.18177 c 1.06629,-0.1 2.14706,-0.24334 2.40172,-0.31861 0.53021,-0.15671 0.59391,0.55803 0.22139,2.48419 -0.12022,0.6216 -0.1268,1.1869 -0.0146,1.25623 0.11217,0.0693 1.00116,-0.35827 1.97552,-0.95021 0.97436,-0.59195 1.81137,-1.03645 1.86004,-0.98779 0.0487,0.0487 0.3319,0.96691 0.62942,2.04053 0.29751,1.07363 0.6035,2.01461 0.67996,2.09108 0.1243,0.1243 3.52616,-2.95631 4.70245,-4.25839 0.59464,-0.65823 0.5926,-0.63081 -0.22805,3.0652 -0.38129,1.71724 -0.64967,3.16496 -0.5964,3.21716 0.0533,0.0522 0.72532,-0.0298 1.493459,-0.18223 0.76813,-0.15244 1.42846,-0.23094 1.46739,-0.17445 0.0389,0.0565 0.70541,1.08496 1.48103,2.28551 0.77563,1.20054 1.49854,2.18281 1.60647,2.18281 0.10792,0 0.95612,-1.0044 1.88487,-2.232 z m -2.66644,-1.0626 c -0.17697,-0.21322 -0.24019,-0.632 -0.14208,-0.94112 0.26533,-0.83598 1.81568,-0.64661 1.94063,0.23705 0.14116,0.99839 -1.13853,1.49935 -1.79855,0.70407 z m -0.26582,-3.83176 c -0.39592,-0.73978 -0.33903,-1.19934 0.20997,-1.69618 0.62888,-0.56913 1.18075,-0.55441 1.72409,0.046 0.51441,0.5684 0.56845,1.39641 0.12039,1.84448 -0.5031,0.50309 -1.74403,0.38575 -2.05445,-0.19428 z m -0.47156,-5.1195 c -0.54612,-0.47782 -1.68346,-1.37909 -2.52739,-2.00282 -0.843939,-0.62372 -1.729189,-1.54246 -1.967229,-2.04164 -0.23805,-0.49918 -0.55958,-0.90686 -0.71453,-0.90597 -0.53703,0.003 -1.79258,0.7915 -2.31187,1.45167 -0.91322,1.16097 -1.4238,0.87674 -1.91128,-1.06392 -0.23864,-0.95001 -0.5082,-2.4383 -0.59903,-3.3073 l -0.16514,-1.57999 h -2.75783 c -2.83572,0 -3.78136,-0.24043 -3.78136,-0.9614 0,-0.22748 0.46292,-1.38415 1.02871,-2.57037 1.41247,-2.96135 1.51378,-3.3474 0.87845,-3.3474 -1.26851,0 -5.08216,-4.52366 -5.08216,-6.02833 0,-0.65113 0.01,-0.65366 1.84172,-0.47315 l 1.84172,0.18148 1.16091,-1.07009 c 0.6385,-0.58855 1.59566,-1.25174 2.12702,-1.47376 0.85315,-0.35647 0.96612,-0.51291 0.96612,-1.33793 0,-1.43787 0.80592,-4.42281 1.34889,-4.99598 0.47443,-0.50083 0.5367,-0.50213 2.54528,-0.053 1.13243,0.2532 2.31541,0.51339 2.62885,0.57819 0.44206,0.0914 0.63054,-0.0561 0.84022,-0.65761 0.27103,-0.7775 1.15073,-1.38181 2.472099,-1.69822 1.05762,-0.25325 2.22356,-1.35623 2.70465,-2.5586 0.64194,-1.60436 1.08634,-1.61066 2.50611,-0.0356 0.74566,0.82725 1.71323,1.56269 2.47027,1.87761 1.09359,0.45493 2.57352,1.95363 2.90637,2.94323 0.0454,0.13486 0.6682,-0.0515 1.38409,-0.41403 1.45055,-0.73467 2.32588,-0.83296 2.75999,-0.30989 0.30863,0.37188 1.82289,4.6056 2.06289,5.76764 0.12516,0.60604 0.44722,0.79446 2.56557,1.50097 1.33234,0.44437 3.00574,0.8768 3.71866,0.96096 1.77125,0.2091 2.10117,0.53264 1.89596,1.85935 -0.3727,2.40973 -2.75076,5.70131 -4.11899,5.70131 -0.29062,0 -0.52834,0.0298 -0.52827,0.0662 8e-5,0.0364 0.24838,0.71929 0.55179,1.51757 1.01707,2.67598 0.69533,4.66923 -0.85751,5.31244 -0.46665,0.19329 -1.51314,0.26838 -2.68872,0.19294 l -1.92471,-0.12352 -0.46411,2.00731 c -0.59122,2.55712 -1.21268,3.83733 -1.91141,3.93752 -0.29965,0.043 -1.30081,-0.27941 -2.2248,-0.71639 -1.61794,-0.76516 -2.12233,-0.82523 -2.12233,-0.25275 0,0.1476 -0.98016,1.3312 -2.17815,2.63021 -2.47628,2.68513 -2.85801,2.81557 -4.36952,1.49308 z m 0.46226,-2.44782 c 0,-0.0779 -0.1938,-0.43738 -0.43067,-0.79888 -0.53538,-0.81709 -0.35534,-2.18901 0.43246,-3.29537 0.79335,-1.11416 0.99789,-0.98923 0.85279,0.52086 -0.10784,1.12226 -0.0293,1.42709 0.54269,2.10689 0.36783,0.43714 0.72022,0.94802 0.78308,1.1353 0.14555,0.43357 1.13945,-0.0649 2.53533,-1.27155 l 0.97141,-0.83972 -0.92532,-0.39366 c -0.50892,-0.21651 -1.21011,-0.70257 -1.5582,-1.08012 -0.5676,-0.61565 -0.61767,-0.8543 -0.48534,-2.31366 0.1869,-2.06116 0.66883,-2.66685 0.64074,-0.80528 -0.0289,1.91587 0.40302,2.28567 3.06683,2.62573 1.19338,0.15235 2.20514,0.24164 2.24836,0.19842 0.0432,-0.0432 -0.15774,-0.48055 -0.44658,-0.97183 -0.51478,-0.87557 -1.15727,-3.15696 -0.94801,-3.36622 0.0583,-0.0583 0.30956,0.32063 0.55827,0.84217 0.28241,0.59222 0.73977,1.04849 1.21814,1.21526 0.52716,0.18376 0.90527,0.59866 1.2128,1.33078 0.24576,0.58507 0.52169,1.06497 0.61318,1.06645 0.19148,0.003 0.64509,-1.12348 0.87175,-2.16508 0.12884,-0.59205 0.0318,-0.77103 -0.5738,-1.05833 -0.76067,-0.36086 -1.9195,-2.31192 -1.9195,-3.23176 0,-0.3668 0.22962,-0.16284 0.76233,0.67715 0.41927,0.66114 0.96479,1.27976 1.21226,1.37472 1.06115,0.4072 4.72039,-0.18661 4.64257,-0.75338 -0.0263,-0.19116 -2.05236,-1.04096 -2.82096,-1.18318 -0.0557,-0.0103 -0.6212,-1.64532 -0.6212,-1.79603 0,-0.0672 0.20836,0.124 0.46302,0.42481 0.36745,0.43403 0.81801,0.55961 2.18282,0.60837 l 1.71979,0.0615 0.0792,-1.35093 c 0.0736,-1.25458 0.008,-1.42174 -0.91362,-2.34376 -0.86836,-0.86836 -0.91147,-0.96596 -0.3438,-0.77846 0.35697,0.11792 1.35644,0.26891 2.22104,0.33555 1.81784,0.14011 2.26446,-0.20353 2.26446,-1.74232 0,-0.90589 -0.006,-0.91083 -0.54008,-0.42771 -0.84184,0.76186 -2.73012,0.63753 -4.487,-0.29544 l -1.45521,-0.77277 2.3151,-0.0764 c 2.37544,-0.0784 2.78487,-0.29681 1.68984,-0.9013 -3.9464,-2.17853 -4.55419,-2.35325 -6.19575,-1.781 -0.44801,0.15618 -1.15039,0.24548 -1.56084,0.19844 -0.68942,-0.079 -0.61093,-0.16488 1.03037,-1.12724 0.97715,-0.57295 1.8438,-1.21674 1.92588,-1.43064 0.16009,-0.41718 -1.03366,-2.42243 -1.4421,-2.42243 -0.13509,0 -0.28223,0.50601 -0.32698,1.12448 -0.0863,1.19282 -0.2489,1.30769 -2.67491,1.88968 -0.67268,0.16138 -0.71595,0.13019 -0.46638,-0.33615 0.15131,-0.28271 0.63519,-0.67342 1.07531,-0.86823 0.87707,-0.38823 1.25356,-1.12375 0.834,-1.62929 -0.36691,-0.4421 -3.56469,-0.55847 -4.32595,-0.15743 -0.77536,0.40846 -0.99224,0.74125 -1.01957,1.56444 l -0.022,0.66145 -0.29126,-0.60459 c -0.46362,-0.96242 0.34995,-2.38574 1.65721,-2.89925 0.57811,-0.22708 1.05111,-0.49113 1.05111,-0.58676 0,-0.49188 -0.83154,-1.09841 -2.32688,-1.69724 l -1.66542,-0.66695 -0.25726,0.67664 c -0.16564,0.43567 -0.16651,1.0053 -0.002,1.59955 0.22743,0.82369 0.18079,0.99153 -0.4339,1.5612 -0.81886,0.75889 -0.97971,0.6905 -0.61738,-0.2625 0.22107,-0.58145 0.1762,-0.78276 -0.25718,-1.15383 -0.35269,-0.30195 -0.52501,-0.77959 -0.52501,-1.45512 v -1.00564 l -0.6952,0.45552 c -0.38237,0.25053 -1.41833,0.54077 -2.30216,0.64499 -2.069099,0.24396 -2.676269,0.88122 -1.513409,1.5884 1.033099,0.62826 1.381569,1.35429 1.284329,2.67585 l -0.0809,1.09901 -0.66145,-1.30755 -0.661459,-1.30756 -2.18281,-0.0768 c -1.20055,-0.0423 -2.18282,0.003 -2.18282,0.10035 0,0.0975 0.53578,0.67614 1.19063,1.28596 0.83705,0.7795 1.19062,1.31858 1.19062,1.81529 0,0.68162 -0.0187,0.69052 -0.53021,0.25254 -0.29162,-0.24969 -1.03304,-0.57595 -1.64761,-0.72502 -1.24488,-0.30195 -1.78053,-1.0328 -1.78703,-2.43823 -0.002,-0.46435 -0.1173,-0.91436 -0.2559,-1.00003 -0.29279,-0.18095 -1.07091,2.25137 -1.07091,3.34754 0,0.66753 0.0917,0.74573 0.87464,0.74573 0.52209,0 1.24195,0.27149 1.78593,0.67356 l 0.9113,0.67355 -1.85208,-0.0585 c -1.30877,-0.0414 -2.09913,0.0708 -2.69421,0.38238 -0.80486,0.42142 -3.1707,2.96602 -3.08614,3.31932 0.0222,0.093 0.4337,0.30209 0.91431,0.46462 0.48059,0.16253 0.91335,0.41412 0.96167,0.55908 0.144,0.43203 -1.45825,0.94439 -2.44999,0.78345 -1.24269,-0.20166 -1.16264,0.17181 0.1791,0.83566 l 1.10078,0.54462 0.7716,-0.64927 c 0.42438,-0.35709 0.88153,-0.64926 1.01589,-0.64926 0.13435,0 0.24428,-0.21431 0.24428,-0.47625 0,-0.68304 0.54412,-1.16363 0.94282,-0.83274 0.22347,0.18546 0.60625,0.0835 1.2651,-0.33703 1.20949,-0.77195 1.20407,-0.99347 -0.0251,-1.02639 l -0.99219,-0.0266 0.98717,-0.23283 c 0.54294,-0.12805 2.03122,-0.75706 3.30729,-1.3978 1.27607,-0.64073 3.09403,-1.40276 4.039919,-1.6934 4.17538,-1.28293 6.27577,-1.03411 10.76617,1.27538 1.68174,0.86495 3.34062,1.57264 3.6864,1.57264 0.79858,0 0.8249,0.46171 0.0334,0.58536 -0.51153,0.0799 -0.42774,0.18465 0.59532,0.74419 0.65484,0.35816 1.41992,0.71483 1.70017,0.7926 0.28025,0.0778 0.5539,0.27444 0.6081,0.43704 0.19424,0.58272 -5.126,4.93134 -7.6069,6.21768 -5.00417,2.59465 -8.41418,2.01618 -14.339089,-2.43245 -3.11153,-2.33625 -3.75283,-2.52101 -5.24948,-1.51242 -0.62296,0.41981 -0.98942,0.94771 -1.22663,1.76701 -0.18604,0.64259 -0.3032,1.2034 -0.26036,1.24625 0.0429,0.0428 0.48791,-0.0264 0.98905,-0.15384 2.05815,-0.52344 2.36638,-0.55642 2.36638,-0.25322 0,0.48693 -1.84006,2.0868 -2.40009,2.0868 -0.85534,0 -0.57094,0.38141 0.54384,0.72933 2.2653,0.707 3.42341,0.35883 4.62482,-1.39037 0.19974,-0.29082 0.43247,-0.45944 0.51718,-0.37473 0.0847,0.0847 -0.32227,0.83395 -0.9044,1.66497 -1.04839,1.49663 -1.30497,2.3622 -0.79385,2.67809 0.14552,0.0899 0.26458,0.0454 0.26458,-0.099 0,-0.14438 0.77391,-0.67344 1.71979,-1.17571 0.94589,-0.50227 1.7198,-0.85367 1.7198,-0.78089 0,0.0728 -0.53578,0.93826 -1.19063,1.92329 -0.65484,0.98502 -1.19062,1.88181 -1.19062,1.99284 0,0.36533 4.493929,-0.12595 5.163139,-0.56443 0.35133,-0.23021 0.87497,-1.03273 1.16363,-1.78338 l 0.52483,-1.36482 0.0138,1.45993 c 0.0162,1.71585 -0.79467,3.16278 -2.09498,3.73835 -0.440919,0.19517 -0.793049,0.41508 -0.782529,0.4887 0.0437,0.30602 3.253819,2.91198 3.587039,2.91198 0.19942,0 0.36259,-0.0637 0.36259,-0.1416 z m -0.37891,-12.35997 c -0.47033,-0.47294 -1.07342,-1.4552 -1.3402,-2.18281 -0.61526,-1.67812 -0.80283,-1.88742 -1.3124,-1.46451 -1.031199,0.85582 0.0539,3.33375 1.79344,4.09564 1.49452,0.65455 1.79831,0.49604 0.85916,-0.44832 z m 7.84825,-0.565 c 0.76681,-0.49265 1.97314,-1.40752 2.68072,-2.03305 l 1.28653,-1.13732 -0.88965,-0.74687 c -0.48931,-0.41077 -1.70376,-1.29124 -2.69878,-1.9566 -1.79045,-1.19724 -2.53954,-1.37871 -1.65457,-0.40082 0.69655,0.76968 1.2342,2.85445 1.04358,4.04653 -0.0915,0.57253 -0.44768,1.45538 -0.7914,1.96188 -0.99621,1.46799 -0.88995,1.49563 1.02357,0.26625 z m -11.528199,-0.61018 c -0.70958,-1.37216 -0.77831,-2.52508 -0.24476,-4.1055 0.55553,-1.64554 0.6116,-1.62232 -1.38494,-0.5734 -0.58208,0.30581 -1.6941,0.76406 -2.47115,1.01832 -0.77706,0.25427 -1.31284,0.55942 -1.19063,0.67813 0.55969,0.54364 5.48692,3.94205 5.58019,3.84878 0.0577,-0.0577 -0.0722,-0.44759 -0.28871,-0.86633 z m 9.805729,-2.78426 c 0.12164,-1.64475 -0.46674,-2.81034 -1.84185,-3.64876 -1.01663,-0.61984 -2.84669,-0.7208 -2.84669,-0.15704 0,0.20389 0.71987,0.99433 1.59972,1.75656 1.67358,1.44985 2.36903,2.46813 2.36903,3.46877 0,1.20976 0.61505,-0.003 0.71979,-1.41953 z m 13.69454,-13.17233 c 1.16918,-3.84485 2.45001,-4.5937 8.33403,-4.87261 3.80703,-0.18045 5.12301,-0.65944 6.46857,-2.35441 2.00001,-2.51937 -0.066,-5.43424 -3.13409,-4.4217 -1.14923,0.37928 -2.05825,1.47245 -1.9522,2.34768 0.10919,0.90107 1.40025,1.84143 2.0065,1.46145 0.67728,-0.42451 0.70344,-1.3084 0.0522,-1.76453 -0.68109,-0.47705 -0.27443,-0.84197 0.67324,-0.60412 2.01014,0.50451 0.99436,3.86034 -1.16756,3.85725 -0.98016,-0.001 -2.31003,-0.88697 -2.82372,-1.88034 -1.27229,-2.46035 1.76244,-6.15097 4.67487,-5.68526 4.16816,0.66652 5.75663,5.31626 2.95402,8.64698 -1.36276,1.61955 -2.38432,1.90886 -7.34918,2.08139 -4.08022,0.14179 -4.62059,0.21723 -5.81889,0.81237 -0.79733,0.396 -1.67733,1.12803 -2.21997,1.84669 -0.65082,0.86194 -0.84347,1.00802 -0.69785,0.52916 z m -36.648169,-1.87238 c -1.4899,-1.50415 -2.653,-1.83178 -6.5028,-1.83178 -3.94577,0 -5.97034,-0.39323 -7.30903,-1.41962 -2.04919,-1.57114 -2.86712,-4.4135 -1.84316,-6.40508 2.13532,-4.15316 7.0504,-3.96653 8.76333,0.33274 0.59945,1.50456 -0.10556,3.02795 -1.80895,3.90881 -1.06367,0.55005 -1.95258,0.3714 -2.82248,-0.56723 -1.16877,-1.26113 -0.56949,-2.99337 1.03558,-2.99337 0.83981,0 0.90695,0.27686 0.1776,0.73234 -1.12068,0.69988 -0.31951,2.24337 0.84298,1.62405 1.50219,-0.80029 1.62432,-1.7941 0.3741,-3.04431 -0.78094,-0.78094 -1.07245,-0.89958 -2.21032,-0.89958 -1.01907,0 -1.46415,0.14217 -2.00013,0.6389 -1.34583,1.24727 -1.26164,2.71861 0.25138,4.39334 1.15473,1.27815 2.83128,1.84343 5.50199,1.85509 3.43866,0.015 5.7204,0.44126 6.75591,1.26203 0.8895,0.70504 2.27694,2.98099 2.08412,3.41877 -0.0499,0.1132 -0.63041,-0.33909 -1.29012,-1.0051 z m 30.634359,0.71032 c -0.25466,-0.19332 -0.46302,-0.60889 -0.46302,-0.9235 0,-0.60955 1.70534,-4.16278 2.86058,-5.96027 1.92222,-2.99087 5.74188,-7.39065 7.52431,-8.66707 l 0.72761,-0.52105 v 1.28331 c 0,1.27412 -0.0204,1.30421 -2.84427,4.20174 -3.03616,3.11531 -5.43324,6.61369 -6.45864,9.42594 -0.30667,0.84107 -0.63092,1.52543 -0.72056,1.5208 -0.0897,-0.005 -0.37135,-0.16658 -0.62601,-0.3599 z m 2.69357,-0.0507 c -0.46568,-0.56111 -0.0159,-1.27421 0.87119,-1.3812 0.73894,-0.0891 1.11575,0.48738 0.85518,1.30836 -0.19303,0.6082 -1.24522,0.65259 -1.72637,0.0728 z m -30.660109,-0.35013 c -0.39992,-0.74726 0.5458,-1.86696 1.22704,-1.45275 0.59393,0.36112 0.7812,1.42265 0.30431,1.72494 -0.5929,0.37581 -1.24675,0.25959 -1.53135,-0.27219 z m 3.30063,-0.74447 c -0.45361,-2.41794 -3.94524,-7.81584 -6.99237,-10.80987 l -2.17497,-2.13706 0.0825,-1.30252 0.0825,-1.30252 2.64583,2.65383 c 2.85346,2.86208 5.09894,5.97161 6.60998,9.15342 1.2794,2.69404 1.40942,3.66433 0.57052,4.25755 -0.64151,0.45364 -0.64286,0.45279 -0.82401,-0.51283 z m 2.95501,-24.87853 c -0.0793,-16.47311 -0.20799,-24.21851 -0.42024,-25.28789 -0.16829,-0.84784 -0.72726,-2.37809 -1.24216,-3.40055 -0.51491,-1.02246 -0.87146,-1.92376 -0.79233,-2.00289 0.0791,-0.0791 0.68761,0.35736 1.3522,0.96995 1.41624,1.30545 2.10521,1.334 2.89443,0.11995 0.29605,-0.4554 0.6921,-1.05071 0.88012,-1.32292 0.3286,-0.47572 0.33699,-0.4744 0.21624,0.0342 -0.0691,0.29104 -0.33986,1.18401 -0.60171,1.98438 -0.44371,1.35625 -0.47858,3.1626 -0.51278,26.5637 l -0.0367,25.1085 -0.62949,0.48406 c -0.34622,0.26623 -0.71135,0.4867 -0.81139,0.48994 -0.10005,0.003 -0.23333,-10.67998 -0.29618,-23.74047 z m 19.133009,22.55764 -0.6196,-0.65954 -0.0917,-20.0441 c -0.095,-20.76914 -0.30005,-26.88359 -1.01818,-30.36028 -0.23202,-1.12327 -0.37737,-2.08678 -0.32301,-2.14115 0.0544,-0.0544 0.50824,0.52364 1.00861,1.28445 1.24286,1.88974 2.00454,1.9795 3.59041,0.42309 1.24635,-1.22321 1.55981,-0.98937 0.51319,0.38283 -0.35345,0.4634 -0.919,1.43772 -1.25677,2.16516 l -0.61414,1.32263 -0.0729,24.14322 c -0.0401,13.27878 -0.16814,24.14323 -0.2846,24.14323 -0.11647,0 -0.49058,-0.29679 -0.83137,-0.65954 z m 8.07431,-0.39182 c -1.05748,-1.1685 0.64459,-2.85595 1.86177,-1.84577 0.4077,0.33836 0.49858,1.24415 0.17573,1.75168 -0.39824,0.62605 -1.50964,0.67738 -2.0375,0.0941 z m -36.499919,-0.42274 c -0.55741,-0.55742 -0.52365,-1.06385 0.1134,-1.7009 0.65695,-0.65695 1.11409,-0.66929 1.67878,-0.0453 1.21157,1.33877 -0.51618,3.0222 -1.79218,1.74621 z m 25.978329,-1.76704 c -2.2304,-3.40744 -4.47779,-11.40268 -5.87387,-20.8967 -0.33986,-2.31122 -0.67623,-4.26052 -0.7475,-4.33178 -0.0713,-0.0713 -0.21123,0.56048 -0.31104,1.40388 -1.08062,9.13113 -3.62027,19.17593 -5.772759,22.83241 l -0.85665,1.45521 -0.0715,-5.66177 c -0.058,-4.5891 -5.3e-4,-5.74203 0.30388,-6.08542 2.460869,-2.77715 4.953609,-12.34414 5.816109,-22.32197 0.15637,-1.80907 -0.21671,-1.80845 -0.48732,7.9e-4 -0.4217,2.81935 -2.05663,7.70576 -3.65281,10.91732 l -1.643759,3.30729 -0.0734,-3.94456 -0.0735,-3.94456 0.82228,-0.80394 c 1.681559,-1.64404 2.969609,-5.27533 3.814449,-10.75382 0.23563,-1.52797 0.48807,-3.16507 0.56098,-3.63802 0.12898,-0.8366 0.16808,-0.85989 1.44349,-0.85989 0.72102,0 1.40023,-0.005 1.50937,-0.0101 0.10914,-0.006 0.28921,0.67905 0.40016,1.52135 0.96353,7.3152 2.56329,12.35681 4.41548,13.91533 l 0.80676,0.67884 v 4.00145 c 0,2.36759 -0.0994,3.94003 -0.24336,3.85104 -1.17942,-0.72892 -4.54388,-9.56878 -5.19108,-13.63916 -0.36496,-2.29533 -0.65595,-2.29533 -0.49519,0 0.58036,8.2867 2.61105,16.69201 5.00271,20.70691 l 0.92278,1.54906 0.17631,5.67306 c 0.097,3.12018 0.1116,5.67305 0.0325,5.67305 -0.0791,0 -0.31917,-0.26789 -0.53349,-0.59531 z m 15.11761,0.15268 c -0.70011,-0.18229 -1.16489,-1.31766 -0.87586,-2.13952 0.59475,-1.69117 3.0204,-1.23222 3.0204,0.57148 0,1.17128 -0.96328,1.87561 -2.14454,1.56804 z m -45.587609,-0.92469 c -0.56792,-0.81081 -0.53116,-1.43395 0.12318,-2.08829 0.71565,-0.71565 1.76893,-0.57875 2.43419,0.31639 0.46246,0.62227 0.4793,0.77874 0.15658,1.45521 -0.4945,1.03654 -2.08015,1.22157 -2.71395,0.31669 z m 22.060559,0.0313 c -0.47015,-0.8785 -0.20712,-1.90902 0.60232,-2.35982 0.65342,-0.36391 0.80179,-0.36391 1.45521,0 0.80944,0.4508 1.07247,1.48132 0.60231,2.35982 -0.21695,0.40538 -0.55263,0.54225 -1.32992,0.54225 -0.77728,0 -1.11296,-0.13687 -1.32992,-0.54225 z m 14.32197,-4.58581 c -0.44434,-2.21591 -0.26225,-5.05372 0.50286,-7.83652 0.30007,-1.09141 1.7785,-4.48527 3.28541,-7.54192 3.05385,-6.19451 3.59279,-7.70002 3.59219,-10.03475 -7.9e-4,-3.10942 -1.48628,-4.50473 -3.6223,-3.40243 -2.1283,1.09831 -2.90092,3.69486 -1.35624,4.55788 1.07466,0.60042 2.20082,0.13203 2.20082,-0.91536 0,-0.74018 -0.06,-0.78552 -1.0011,-0.75641 -0.96171,0.0298 -0.98656,0.009 -0.63143,-0.52917 0.49812,-0.75476 1.78867,-0.86781 2.38497,-0.20891 0.25344,0.28005 0.52993,0.93515 0.61442,1.45577 0.13133,0.80928 0.0367,1.06349 -0.65242,1.75261 -0.63162,0.63162 -1.03672,0.80602 -1.87226,0.80602 -1.95159,0 -3.15914,-1.03616 -3.59114,-3.08145 -0.34815,-1.6483 1.14057,-3.94796 3.16146,-4.8836 2.40086,-1.11156 4.5469,-0.27216 5.82019,2.27651 0.6957,1.39254 0.79269,1.86369 0.78976,3.83646 -0.004,2.72082 -0.66449,4.49686 -3.50633,9.42884 -1.57899,2.74031 -2.77407,5.06169 -3.79532,7.3722 -0.95276,2.15554 -1.64407,5.30166 -1.8895,8.59896 -0.0571,0.76656 -0.13181,0.61247 -0.43404,-0.89473 z m -25.962369,-0.75892 c -0.003,-0.76398 -0.2303,-2.40109 -0.50479,-3.63802 -0.8822,-3.97548 -2.08561,-6.68321 -5.63268,-12.67364 -2.86022,-4.83047 -3.43358,-6.84667 -2.72963,-9.59879 0.76715,-2.99923 2.23855,-4.45049 4.51223,-4.45049 1.66789,0 3.51178,1.01742 4.46318,2.46266 1.38688,2.10678 0.51213,5.11089 -1.6794,5.76749 -1.24986,0.37447 -2.23353,0.15438 -3.07616,-0.68825 -0.8727,-0.8727 -0.86785,-2.30969 0.0108,-3.1883 0.77206,-0.77205 1.48748,-0.8288 2.08769,-0.16558 0.60318,0.66652 0.5481,0.9241 -0.15963,0.74647 -0.86691,-0.21758 -1.3102,0.16624 -1.20961,1.04735 0.079,0.69254 0.19241,0.77268 1.19624,0.84564 0.94296,0.0685 1.17498,-0.0203 1.55051,-0.59339 1.41199,-2.15496 -2.71954,-5.73929 -4.52936,-3.92948 -1.85666,1.85667 -1.49968,5.00587 1.11537,9.83941 3.18205,5.88161 4.02498,7.87886 4.73649,11.22276 0.44174,2.07608 0.53135,8.38322 0.1191,8.38322 -0.14552,0 -0.26716,-0.62507 -0.27031,-1.38906 z m 12.242719,0.42009 c -0.1819,-0.0734 -0.33073,-0.51161 -0.33073,-0.97381 0,-1.54589 1.85435,-1.95662 2.39644,-0.5308 0.47914,1.26023 -0.64399,2.07828 -2.06571,1.50461 z m 16.6026,-1.04564 c 0,-1.19624 0.97071,-4.47634 1.87201,-6.32567 0.74121,-1.52084 1.53662,-2.6272 2.80579,-3.9026 0.97422,-0.97902 1.86807,-1.78003 1.98634,-1.78003 0.11827,0 0.21503,1.48269 0.21503,3.29487 v 3.29488 l -0.99219,0.45585 c -0.5457,0.25071 -2.09351,1.55864 -3.43958,2.9065 -1.34607,1.34786 -2.4474,2.27315 -2.4474,2.0562 z m -30.903499,-0.26296 c -0.52156,-0.93201 -3.77697,-3.98648 -5.04529,-4.73388 l -1.34696,-0.79375 -0.005,-3.42294 -0.005,-3.42294 0.85001,0.7771 c 2.62215,2.39726 4.2077,4.73902 5.08025,7.50324 0.95378,3.02153 1.23471,5.45517 0.47249,4.09317 z m 14.336359,-3.6601 c -0.27175,-0.70819 0.0274,-1.33714 0.68002,-1.42964 0.83191,-0.11792 1.42284,0.62346 1.0509,1.31845 -0.31259,0.58406 -1.5197,0.66161 -1.73092,0.11119 z M 91.494651,132.66356 c -1.68629,-1.71386 -3.62166,-4.72519 -3.26567,-5.08118 0.0654,-0.0654 0.52705,-0.002 1.02577,0.14105 0.49872,0.14304 1.77075,0.26006 2.82674,0.26006 h 1.91998 v 3.3073 c 0,2.29981 -0.0919,3.30729 -0.30172,3.30729 -0.16594,0 -1.15824,-0.87054 -2.2051,-1.93452 z m 25.209969,-1.36229 -0.0813,-3.29681 1.45521,0.13868 c 0.86932,0.0829 2.01446,-0.0123 2.84427,-0.2363 1.71575,-0.46319 1.78392,-0.22427 0.55029,1.92874 -0.83491,1.45713 -3.8979,4.7625 -4.41327,4.7625 -0.16989,0 -0.30484,-1.25243 -0.35523,-3.29681 z M 92.931151,119.19648 c -0.71392,-0.78163 -1.97783,-3.0789 -1.78898,-3.25162 0.0447,-0.0408 0.69734,-0.0134 1.45044,0.0608 l 1.36927,0.13507 0.0859,1.95323 c 0.0473,1.07427 -0.0101,1.95295 -0.12741,1.95261 -0.11735,-2.6e-4 -0.56252,-0.3829 -0.98926,-0.85013 z m 5.30365,-1.6799 c 0,-2.18178 0.034,-2.30939 0.92776,-3.47988 0.82676,-1.08278 1.718069,-3.27474 1.718069,-4.22519 0,-0.43752 0.26582,-0.43151 0.8599,0.0195 0.57056,0.43312 0.57686,0.95498 0.0427,3.54079 -0.33338,1.61401 -0.71508,2.48697 -1.846149,4.22217 -0.78423,1.20312 -1.48807,2.18748 -1.56409,2.18748 -0.076,0 -0.13823,-1.01917 -0.13823,-2.26483 z m 12.745309,0.52444 c -1.43514,-2.099 -2.08811,-3.80105 -2.37284,-6.18504 -0.20902,-1.75007 -0.18713,-1.88923 0.35276,-2.24298 0.55821,-0.36576 0.589,-0.32897 1.01882,1.21701 0.24377,0.87679 0.86074,2.24686 1.37105,3.04459 0.89434,1.39809 0.92507,1.52965 0.85168,3.64599 l -0.0761,2.19557 z m 5.51095,-0.51687 v -1.97607 h 1.16898 c 0.64295,0 1.36389,-0.0748 1.6021,-0.1662 0.38744,-0.14868 0.3967,-0.0785 0.0878,0.66532 -0.39874,0.96015 -2.04093,3.1141 -2.52813,3.31598 -0.2473,0.10247 -0.33073,-0.36148 -0.33073,-1.83903 z m -30.605669,-3.5317 c -0.99067,-0.71763 -1.80781,-2.12425 -2.32408,-4.00062 -0.16075,-0.58423 -0.0793,-0.54598 0.69731,0.32754 1.47669,1.6609 3.86907,2.27658 5.2522,1.35167 1.34482,-0.89928 2.1944,-1.84973 2.80173,-3.13442 l 0.62541,-1.32292 0.003,1.93137 c 0.003,2.01547 -0.34999,3.07182 -1.41743,4.24533 -1.45317,1.59759 -3.90237,1.85914 -5.63773,0.60205 z m 33.892779,-0.037 c -2.18395,-1.08106 -2.97248,-4.0889 -1.83677,-7.00634 l 0.51499,-1.32292 0.19758,1.51442 c 0.52983,4.06111 3.50854,5.99016 6.66122,4.31386 0.67652,-0.35971 1.23004,-0.57972 1.23004,-0.48891 0,0.53113 -1.89191,2.50268 -2.85135,2.97139 -1.42171,0.69453 -2.53933,0.69981 -3.91571,0.0185 z m -33.546099,-4.94037 c -0.1713,-1.29129 -0.19541,-1.3201 -1.42414,-1.70169 l -1.24989,-0.38815 1.18682,-0.65301 c 1.11509,-0.61355 1.19482,-0.73235 1.31912,-1.96553 l 0.13229,-1.31251 0.8558,0.91851 0.85581,0.9185 1.19471,-0.42961 c 0.65709,-0.23629 1.19471,-0.3801 1.19471,-0.31958 0,0.0605 -0.24638,0.59299 -0.54751,1.18325 l -0.5475,1.07321 0.70846,1.07056 0.70846,1.07056 -1.22391,-0.13795 c -1.17175,-0.13208 -1.2615,-0.0927 -2.10644,0.92451 l -0.88255,1.06247 z m 37.382389,0.40954 c -0.60139,-1.1237 -1.04533,-1.3834 -2.25765,-1.32064 -0.63887,0.0331 -1.16158,-0.0163 -1.16158,-0.10966 0,-0.0934 0.25799,-0.5321 0.57331,-0.97494 0.50843,-0.71402 0.53581,-0.89832 0.24189,-1.62834 -0.72502,-1.80076 -0.7334,-1.77846 0.48817,-1.29862 l 1.09516,0.43019 0.86385,-0.83727 c 0.47512,-0.46051 0.94748,-0.83728 1.04969,-0.83728 0.10221,0 0.18584,0.57723 0.18584,1.28273 0,1.24059 0.0348,1.29841 1.05834,1.75998 0.58208,0.26248 1.05833,0.55212 1.05833,0.64365 0,0.0915 -0.50321,0.34134 -1.11825,0.55513 -1.02842,0.35749 -1.13409,0.48198 -1.31536,1.54973 -0.24542,1.44561 -0.35043,1.55387 -0.76174,0.78534 z m -20.08008,-0.78552 c -1.8754,-0.74846 -3.45413,-2.94842 -3.44169,-4.79597 0.012,-1.78268 1.43387,-3.91421 3.06588,-4.59611 3.38424,-1.41402 6.98249,0.99526 6.98249,4.67527 0,3.25368 -3.68344,5.88347 -6.60668,4.71681 z m 3.33634,-2.47321 c 1.4136,-0.99013 1.44799,-3.32967 0.066,-4.49251 -0.97402,-0.81959 -2.15418,-0.87669 -3.3279,-0.16101 -1.52441,0.92949 -1.65508,2.98007 -0.28322,4.44454 0.66478,0.70967 2.66215,0.82741 3.54508,0.20898 z m 28.08826,60.65842 c 0.17462,-0.17463 0.3175,-0.62707 0.3175,-1.00542 0,-0.37835 -0.14288,-0.83079 -0.3175,-1.00542 -0.74826,-0.74826 -2.32834,-0.0659 -2.32834,1.00542 0,1.07137 1.58008,1.75368 2.32834,1.00542 z m -56.445279,-0.73018 c 0.65307,-0.72162 0.3533,-1.79961 -0.5645,-2.02996 -0.92026,-0.23098 -1.52181,0.17719 -1.63136,1.1069 -0.15407,1.30756 1.29619,1.9172 2.19586,0.92306 z m 59.355689,-2.44482 c 0.50569,-0.50569 0.38217,-1.4784 -0.21166,-1.66688 -0.8575,-0.27216 -1.5875,0.095 -1.5875,0.79843 0,0.95111 1.15769,1.50992 1.79916,0.86845 z m -62.441659,-0.52917 c 0.79737,-0.79738 0.006,-1.97755 -1.13427,-1.69138 -0.51877,0.1302 -0.6649,0.33537 -0.6649,0.93354 0,1.00138 1.09458,1.46243 1.79917,0.75784 z"
       id="path60" />
  </g>
</svg>
